<?xml version="1.0" encoding="UTF-8"?><svg id="b" xmlns="http://www.w3.org/2000/svg" viewBox="0 0 378.09 106.29"><defs><style>.d{fill:#fff;stroke-width:0px;}</style></defs><g id="c"><path class="d" d="m153.62,0h-11.76c-6.99,0-12.45,1.96-16.37,5.88-3.92,3.92-6.35,9.8-7.3,17.65V0h-23.67v48.14h.02v10.82c0,3.31-1.16,6.12-3.47,8.43s-5.13,3.47-8.43,3.47h-11.76v-22.72h-.02v-24.61c0-6.42-2.32-11.95-6.94-16.58C59.28,2.32,53.75,0,47.33,0h-11.9c-3.88,0-6.8.97-8.79,2.91s-2.98,4.89-2.98,8.86V0H0v48.14h23.67v-24.61c0-3.21,1.15-5.97,3.47-8.29s5.08-3.47,8.29-3.47,6.11,1.16,8.43,3.47c2.31,2.32,3.47,5.08,3.47,8.29v24.61h-.12v58.15h23.67v-23.67h23.67c6.42,0,11.95-2.31,16.58-6.94,4.62-4.63,6.94-10.21,6.94-16.72l.12-10.82v-12.71c0-3.3,1.15-6.11,3.47-8.43s5.08-3.47,8.29-3.47h23.67V0Z"/><path class="d" d="m354.57,48.14v10.82c0,3.31-1.16,6.12-3.47,8.43-2.32,2.32-5.13,3.47-8.43,3.47h-11.76l-.14-22.72v-24.61c0-6.42-2.32-11.95-6.94-16.58-4.63-4.62-10.16-6.94-16.58-6.94h-11.9c-3.88,0-6.8.97-8.79,2.91-1.98,1.94-2.98,4.89-2.98,8.86V0h-23.67v48.14h.02v10.82c0,3.21-1.16,6-3.47,8.36-2.32,2.36-5.13,3.54-8.43,3.54s-5.98-1.18-8.29-3.54c-2.32-2.36-3.47-5.15-3.47-8.36v-10.82h-.02v-24.61c0-6.42-2.32-11.95-6.94-16.58-4.63-4.62-10.16-6.94-16.58-6.94h-23.67c-6.42,0-11.98,2.32-16.65,6.94-4.68,4.63-7.01,10.16-7.01,16.58v24.61h-23.65v34.48h23.67v-34.48h23.65v-24.61c0-3.21,1.15-5.97,3.47-8.29s5.08-3.47,8.29-3.47,6.11,1.16,8.43,3.47c2.31,2.32,3.47,5.08,3.47,8.29v24.61h0v10.82c0,6.52,2.21,12.09,6.89,16.72,4.68,4.63,10.23,6.94,16.65,6.94h23.67c6.42,0,11.95-2.34,16.58-7.02,4.62-4.68,6.94-10.22,6.94-16.65v-10.82h.12v-24.61c0-3.21,1.15-5.97,3.47-8.29,2.31-2.31,5.08-3.47,8.29-3.47s6.11,1.16,8.43,3.47c2.31,2.32,3.47,5.08,3.47,8.29v82.76h23.67v-23.67h23.67c6.42,0,11.95-2.31,16.58-6.94,4.62-4.63,6.94-10.21,6.94-16.72v-10.82h-23.53Z"/></g></svg>